<svg width="45" height="46" viewBox="0 0 45 46" fill="none" xmlns="http://www.w3.org/2000/svg">
<path d="M22.5 0.952148C10.125 0.952148 0 11.1005 0 23.5995C0 34.9005 8.23499 44.2804 18.99 45.9756V30.1541H13.275V23.5995H18.99V18.6044C18.99 12.9313 22.3425 9.81218 27.495 9.81218C29.9475 9.81218 32.5125 10.2416 32.5125 10.2416V15.8243H29.6775C26.8875 15.8243 26.01 17.5647 26.01 19.3503V23.5995H32.265L31.2525 30.1541H26.01V45.9756C31.312 45.1344 36.1399 42.4169 39.6223 38.3136C43.1047 34.2103 45.012 28.9915 44.9999 23.5995C44.9999 11.1005 34.875 0.952148 22.5 0.952148Z" fill="#CACACA"/>
</svg>
