<svg width="45" height="46" viewBox="0 0 45 46" fill="none" xmlns="http://www.w3.org/2000/svg">
<path d="M22.5 0.952148C10.074 0.952148 0 11.0309 0 23.4639C0 35.8968 10.074 45.9756 22.5 45.9756C34.926 45.9756 45 35.8968 45 23.4639C45 11.0309 34.926 0.952148 22.5 0.952148ZM33.9132 25.8986C34.9619 26.9234 36.0714 27.8879 37.0128 29.0187C37.4299 29.5189 37.823 30.0361 38.1222 30.6179C38.5495 31.4474 38.1637 32.3571 37.4216 32.4064L32.812 32.4055C31.6215 32.504 30.6741 32.0236 29.8754 31.2093C29.2378 30.5603 28.6462 29.8671 28.0321 29.196C27.7812 28.9206 27.517 28.6613 27.2021 28.4572C26.5737 28.0482 26.0277 28.1735 25.6677 28.8303C25.3008 29.4986 25.217 30.2393 25.182 30.9831C25.1319 32.0706 24.8041 32.3548 23.7135 32.4059C21.3832 32.5151 19.1721 32.1613 17.117 30.9859C15.3041 29.9491 13.901 28.4858 12.6783 26.829C10.2973 23.5993 8.47381 20.0545 6.8354 16.408C6.46665 15.5867 6.73642 15.1473 7.64194 15.1303C9.14639 15.1013 10.6508 15.1049 12.1553 15.1289C12.7676 15.1386 13.1727 15.4891 13.4079 16.0671C14.2209 18.0684 15.2176 19.9725 16.4665 21.7385C16.7994 22.2087 17.1391 22.6776 17.623 23.0097C18.157 23.3764 18.5639 23.2552 18.8158 22.6587C18.9769 22.2797 19.0464 21.8743 19.0814 21.4681C19.2011 20.0766 19.2153 18.6856 19.0082 17.2997C18.8793 16.4324 18.3918 15.8723 17.5277 15.7083C17.0876 15.625 17.152 15.4619 17.3661 15.2104C17.7376 14.7756 18.0856 14.5066 18.7812 14.5066L23.9893 14.5057C24.8101 14.6669 24.9942 15.0354 25.1056 15.8626L25.1102 21.6533C25.1006 21.9734 25.2709 22.9222 25.8454 23.1318C26.3058 23.2838 26.6096 22.9144 26.8849 22.6228C28.1339 21.2968 29.0237 19.7316 29.8206 18.1117C30.1723 17.3973 30.4757 16.6581 30.7703 15.9174C30.9895 15.3698 31.3301 15.1003 31.9479 15.1095L36.9631 15.1155C37.1108 15.1155 37.2609 15.1169 37.4073 15.1422C38.2525 15.2869 38.4841 15.6507 38.2226 16.4757C37.811 17.7718 37.0114 18.8514 36.2297 19.9338C35.3919 21.0927 34.4983 22.211 33.6687 23.375C32.9064 24.439 32.9667 24.9746 33.9132 25.8986Z" fill="#CACACA"/>
</svg>
